<?xml version="1.0" encoding="UTF-8"?>
<!DOCTYPE svg PUBLIC "-//W3C//DTD SVG 1.1//EN" "http://www.w3.org/Graphics/SVG/1.1/DTD/svg11.dtd">
<!-- Creator: CorelDRAW 2018 (64-Bit) -->
<svg xmlns="http://www.w3.org/2000/svg" xml:space="preserve" width="158.418mm" height="141.843mm" version="1.1" style="shape-rendering:geometricPrecision; text-rendering:geometricPrecision; image-rendering:optimizeQuality; fill-rule:evenodd; clip-rule:evenodd"
viewBox="0 0 90286.8 80840.2"
 xmlns:xlink="http://www.w3.org/1999/xlink">
 <defs>
  <style type="text/css">
   <![CDATA[
    .fil2 {fill:#2D2B2D}
    .fil0 {fill:#111E2A}
    .fil1 {fill:#2D2B2D;fill-rule:nonzero}
   ]]>
  </style>
 </defs>
 <g id="Слой_x0020_1">
  <metadata id="CorelCorpID_0Corel-Layer"/>
  <path class="fil0" d="M42028.6 28320.6c304.7,672.2 1613.9,882 1776.6,1797.5 -4799.1,843 -5015,333.7 -4716.5,5259.9 -529.7,-323.9 -814.1,-455.9 -1118.5,-1087.7 -441.4,-916.1 -14.8,-1093 -1220.8,-1114.8 -883,3097.7 4377.4,4487.1 6963.1,5648.2 3145.6,1412.5 3427.5,4756.4 -4761.2,2341.4 -5389.3,-1589.4 -9133.2,-6063 -6662.9,-11283.9 377.2,-797.3 739.9,-1371.6 1155,-2065.8 205.4,-343.6 381.7,-644.5 568.3,-1043.8 89.8,-192.2 149.9,-370.6 241.4,-559.6l131.9 -262.1c151.9,-264 99.2,-193 242.3,-342.1 2803.6,1078 6080.7,1861.3 9449.7,1872.7 4978.1,16.8 6250.2,-1080.8 9650.8,-1852.3 453.1,788.7 739.4,1600.9 1199.8,2375.7 413.7,696.1 898.4,1484.8 1275,2338 2309,5230.7 -2164.5,10237 -9531.1,11413.1 323,-1616.2 105.8,-2219.4 -1051.4,-3007 249.9,-301.7 40,-113.4 373.5,-352.7 528.4,-379 2235.1,-934.5 3616.1,-1843.3 508.4,-334.6 3542.3,-2891.2 1303.3,-3405.8 -921,757.5 9.2,859.4 -1004,1637.2 -109.4,-3043.4 838.5,-4077.2 -5082.8,-4713.6l-418.8 -1946 -2378.9 196.7zm-2173.9 -13832.8c32.9,-400.9 971,-561.6 -200.9,-1512.8 -995.9,-2.6 -1233,200.7 -922.8,1271.8 352.7,226.9 533.6,301.8 1123.7,241zm9053.1 17.6c1.2,-17.9 783.9,-1041.3 -78.3,-1498.6 -1135.5,-602.2 -2067.8,1635.3 78.3,1498.6zm-8603.5 18215.5c4127.6,-103 5463.3,-134 6726.9,164.9 1263.5,298.9 2069.8,773 2069.8,773 0,0 -385.1,-731.8 -1179.3,-1123.4 -794.3,-391.7 -3092.7,-577.2 -5258.8,-422.6 -2166.1,154.6 -2358.6,608.1 -2358.6,608.1zm13631.3 -18570c1479.1,936.9 1964.6,754.7 3028.9,2165.5 2911.5,3859.3 -15,6856.6 -4433.2,8471.2 -5572.2,2036.2 -11714.7,1968.8 -17184.9,-120 -8042.8,-3071.1 -5012.3,-8515.4 -2148.4,-9956.6 775.2,-390.1 1059.2,-235 1177.3,-1190.9 303.7,-2457.6 -404.2,-2703.6 1352.5,-3922.8 4359.3,-3025.4 7379.1,719.3 7343.9,5734 -2763.2,1268.8 405,2567 478.9,2613.7 37.8,1110.3 357.7,3039.2 -1260.6,2659.6 -1271.7,-298.4 -264.8,-2256.4 -1608.2,-1673.5 -255.8,297.2 -111.8,-32.8 -236.4,468.3 -0.5,2.2 -211.7,249.5 108.4,1037.9 890.6,2193.4 3236.7,949.7 3668.8,993.8 866.1,88.6 1560.6,881.7 2833.1,-96.5 553.6,-425.6 1269.6,-1648.3 502.4,-2505.3 -1599.4,-93 -113,1728.4 -1886.1,1803 -1338.4,56.4 -989.2,-1475 -935.5,-2687.2 613.9,-464.9 1351.6,-453.4 1497.3,-1269.2 102.6,-574.7 -29.8,-604.4 -350.6,-922.7 -385.5,-382.6 -449.9,-228.5 -787.1,-709.4 462.3,-1105.4 143.1,-2537.1 1082.1,-4250.6 542.5,-990.1 1442.6,-2066.6 2958.6,-2248.7 1630.8,-195.9 2808.4,524.4 3775.3,1371.1 1246.9,1091.9 876.8,2289.2 1023.6,4235.2zm1031.6 10886.1c2349.9,-1137.9 5044.4,-3382.9 4056.5,-7155.2 -391.1,-1493.7 -1428.6,-2769.3 -2240.2,-3398.1 -2468,-1912.3 -1363,-93.9 -1938,-3659.4 -428.9,-2659.2 -1238,-2398.5 430.1,-3996.3 10316.8,-9882.3 21502.6,401.1 19409.3,11951.3 -545.4,3009.2 -1922.4,6310.3 -5209.6,5909.1 -4403.3,-537.4 -4281.5,-5955.9 -4623.8,-6550.6 -1273.9,105.7 -1052.1,592.7 -775.3,2754.8 -3568,1108.7 -6226.6,3994.1 -7049.8,8171.7 -754.8,-647.5 -1974.2,-3135.5 -2059.3,-4027.3zm-19722.7 -16589.7c972.2,-4002.1 4803.6,-6322.6 9034.6,-6271.8 4912.6,59 7451.2,2564.3 8772.2,6280.8 -1934.2,-953.7 -3722.8,-1786 -5949.6,-358.1 -1544.4,990.3 -2458.1,2650 -2922.9,5196.9 -627.7,-1666.8 -875,-3866.6 -2944.5,-5176.8 -2279.2,-1442.9 -3981.1,-649.2 -5989.7,329zm16758.7 -4277c-191.4,-170 -284.6,-263 -506,-459.6l-650 -643.8c446.7,-440.1 894,-527.4 1725.7,-420.1l-569.8 1523.5zm-15703.3 -0.1c-341.9,-521.8 -597.5,-823.2 -380,-1597.9 734.4,6 1025.9,121.3 1502.8,494.5 -442,381.8 -592.8,720.3 -1122.9,1103.4zm-3096.8 9150.6c-1407.9,1127 -4013.3,2222.5 -4150.4,5826.5 -61.9,1625.7 668.5,2894.5 1367.3,3808.8 726.6,950.8 1848.3,1444.4 2777.7,2125.4 30.6,22.5 88.7,65.8 130.7,101.7 -520.6,2365 -2459.9,3794.9 -2883.4,6660.5 -1173.3,7938.3 8891.2,12522.8 16807.8,10992.9 5061.8,-978.2 9698.2,-3466.4 10527.5,-8370.2 539,-3187 -304.3,-4951.4 1342.2,-8114.4 902.9,-1734.5 2991.8,-3835.7 5261.3,-4365.7 721.8,820.1 905,1581.3 1714.4,2288.7 2964.6,2591.1 6288.8,2035 8369.6,-1277.7 3903.8,-6214.7 912.7,-19888.5 -9232.7,-21215 -6825.7,-892.5 -10558.6,4531.8 -11693.8,4953.9 -518.9,-1414.8 291.5,-1309.5 900.8,-2751.9 438.8,-1038.8 651.5,-2450.1 -168.1,-3277.4 -1832.1,-1849.3 -4462.2,429.6 -5572.8,1177.9 -2335.2,-921.4 -5187,-1137.2 -7693.4,-487 -2326.4,603.6 -1185.4,549.5 -2933.4,-574.8 -961,-618.1 -2273,-1043.4 -3448.3,-578.7 -3003.7,1187.6 373.4,5285.1 263.8,5940.8 -66.6,398.6 -939.5,2316.7 -1164.8,3213 -338.5,1346.9 -390.1,2519.4 -522.2,3922.8z"/>
  <path class="fil1" d="M6100.2 50432.8c0,-212.7 -26.6,-482.3 -79.8,-809 -53.2,-326.6 -186.1,-634.3 -398.8,-922.9 -136.7,-167.2 -322.8,-319 -558.3,-455.8 -235.4,-136.7 -558.3,-205.1 -968.5,-205.1 -212.6,0 -444.3,34.2 -695,102.6 -250.7,68.3 -482.4,208.9 -695,421.6 -273.5,288.6 -440.6,607.7 -501.4,957.1 -60.8,349.4 -91.1,676 -91.1,979.8 0,243.1 19,546.9 57,911.5 38,364.6 155.7,698.8 353.2,1002.6 167.1,227.9 368.4,410.2 603.9,546.9 235.4,136.7 452,243.1 649.4,319l1458.4 524.1c334.2,121.6 691.2,284.8 1071,490 379.8,205.1 698.8,489.9 957.1,854.5 288.7,395 467.2,809 535.5,1241.9 68.4,433 102.6,900.1 102.6,1401.5l0 569.7c0,790 -98.8,1469.8 -296.2,2039.5 -197.5,569.7 -448.2,1029.2 -752,1378.7 -288.6,303.8 -676,546.9 -1162.1,729.2 -486.1,182.3 -1048.3,273.5 -1686.3,273.5 -790,0 -1435.6,-121.5 -1937,-364.6 -501.3,-243.1 -881.1,-539.3 -1139.3,-888.7 -167.1,-227.9 -296.2,-482.4 -387.4,-763.4 -91.1,-281 -159.5,-554.5 -205.1,-820.4 -45.6,-265.9 -72.2,-497.5 -79.7,-695 -7.6,-197.5 -11.4,-319 -11.4,-364.6l0 -569.7 1709 0 0 455.8c0,212.6 26.6,482.3 79.8,809 53.1,326.6 178.5,619.1 376,877.3 258.2,303.8 535.5,490 831.8,558.3 296.2,68.4 543.1,102.6 740.6,102.6 531.7,0 926.7,-79.8 1185,-239.3 258.2,-159.5 448.1,-315.2 569.6,-467.1 212.7,-273.5 341.8,-581.1 387.4,-922.9 45.5,-341.8 68.3,-649.4 68.3,-922.9l0 -615.2c0,-303.8 -26.6,-634.3 -79.7,-991.3 -53.2,-357 -178.5,-657.1 -376,-900.1 -197.5,-258.3 -429.2,-455.8 -695,-592.5 -265.8,-136.7 -467.1,-227.9 -603.8,-273.5l-1731.8 -615.3c-395,-136.7 -771,-330.4 -1128,-581 -357,-250.7 -641.9,-626.7 -854.5,-1128 -151.9,-349.4 -243.1,-714 -273.5,-1093.8 -30.4,-379.8 -45.6,-767.2 -45.6,-1162.1l0 -478.6c0,-638 106.3,-1196.3 319,-1674.9 212.7,-478.5 486.1,-869.7 820.4,-1173.5 349.4,-349.4 748.2,-588.7 1196.3,-717.8 448.2,-129.1 922.9,-193.7 1424.2,-193.7 1093.8,0 1974.9,338 2643.4,1014 668.4,676 1002.6,1659.7 1002.6,2951l0 546.8 -1709 0 0 -455.7z"/>
  <path id="1" class="fil1" d="M12978.4 50637.9c0,-288.6 11.4,-581 34.2,-877.3 22.8,-296.2 72.2,-581.1 148.1,-854.5 76,-273.5 189.9,-543.1 341.8,-809 151.9,-265.9 357,-520.3 615.2,-763.4 668.5,-638.1 1564.7,-957.1 2688.9,-957.1 1124.2,0 2020.5,319 2689,957.1 516.5,486.1 835.5,1010.2 957.1,1572.3 121.5,562.1 182.3,1139.4 182.3,1731.8l0 7884.6c0,425.3 -26.6,835.5 -79.7,1230.5 -53.2,395 -178.5,782.3 -376,1162.1l1344.5 1048.2 -934.3 1093.8 -1321.7 -1025.4c-638,501.3 -1458.4,752 -2461.1,752 -1124.2,0 -2020.5,-319 -2688.9,-957.1 -258.2,-243.1 -463.4,-497.5 -615.2,-763.4 -151.9,-265.9 -265.9,-535.5 -341.8,-809 -76,-273.5 -125.3,-554.5 -148.1,-843.2 -22.8,-288.7 -34.2,-584.9 -34.2,-888.7l0 -7884.6zm5947.6 -364.6c0,-288.7 -30.4,-573.5 -91.1,-854.5 -60.8,-281 -227.9,-550.7 -501.4,-809 -167.1,-167.1 -376,-303.8 -626.6,-410.2 -250.7,-106.3 -550.7,-159.5 -900.1,-159.5 -349.4,0 -649.4,53.2 -900.1,159.5 -250.7,106.3 -459.5,243.1 -626.6,410.2 -273.5,258.3 -440.6,527.9 -501.4,809 -60.8,281.1 -91.1,565.9 -91.1,854.5l0 8613.7c0,288.6 30.4,573.5 91.1,854.5 60.8,281 227.9,558.3 501.4,831.8 167.1,151.9 376,281 626.6,387.4 250.7,106.3 550.7,159.5 900.1,159.5 212.7,0 402.6,-19 569.7,-57 167.1,-38 326.6,-94.9 478.6,-170.9l-1298.9 -1025.4 911.5 -1093.8 1344.5 1071c45.5,-167.1 76,-326.6 91.1,-478.6 15.2,-151.9 22.8,-311.4 22.8,-478.5l0 -8613.7z"/>
  <path id="2" class="fil1" d="M27923.5 46604.5l0 12282.5c0,668.4 159.5,1207.7 478.6,1617.9 319,410.2 797.6,615.3 1435.6,615.3 638,0 1116.6,-205.1 1435.6,-615.3 319,-410.2 478.5,-949.5 478.5,-1617.9l0 -12282.5 1709.1 0 0 11917.9c0,850.7 -110.2,1549.5 -330.4,2096.4 -220.3,546.9 -508.9,979.9 -865.9,1298.9 -357,319 -748.2,543.1 -1173.5,672.2 -425.4,129.1 -843.2,193.7 -1253.3,193.7 -410.2,0 -827.9,-64.6 -1253.3,-193.7 -425.3,-129.1 -816.5,-353.2 -1173.5,-672.2 -357,-319 -645.7,-752 -865.9,-1298.9 -220.3,-546.9 -330.4,-1245.7 -330.4,-2096.4l0 -11917.9 1709 0z"/>
  <polygon id="3" class="fil1" points="40863.3,46604.5 40863.3,62555.8 39154.3,62555.8 39154.3,46604.5 "/>
  <path id="4" class="fil1" d="M49769.7 46604.5c425.4,0 884.9,30.4 1378.7,91.1 493.7,60.8 953.3,216.5 1378.7,467.2 425.4,250.7 774.8,630.5 1048.2,1139.3 273.5,508.9 410.2,1204 410.2,2085.1l0 1253.3c0,881.1 -182.3,1610.3 -546.9,2187.6 -364.6,577.3 -911.5,979.9 -1640.7,1207.7l2552.2 7519.9 -1777.4 0 -2347.1 -7178.1 -1937 0 0 7178.1 -1709 0 0 -15951.3 3190.2 0zm-1481.2 7292l1686.3 0c638,0 1181.1,-178.5 1629.3,-535.5 448.1,-357 672.2,-892.5 672.2,-1606.5l0 -1504c0,-501.3 -83.6,-892.5 -250.7,-1173.5 -167.1,-281.1 -372.2,-497.5 -615.3,-649.4 -243.1,-151.9 -505.1,-246.9 -786.2,-284.8 -281,-38 -527.9,-57 -740.6,-57l-1595.1 0 0 5810.8z"/>
  <path id="5" class="fil1" d="M62436 46604.5c425.4,0 884.9,30.4 1378.7,91.1 493.7,60.8 953.3,216.5 1378.7,467.2 425.4,250.7 774.8,630.5 1048.2,1139.3 273.5,508.9 410.2,1204 410.2,2085.1l0 1253.3c0,881.1 -182.3,1610.3 -546.9,2187.6 -364.6,577.3 -911.5,979.9 -1640.7,1207.7l2552.2 7519.9 -1777.4 0 -2347.1 -7178.1 -1937 0 0 7178.1 -1709 0 0 -15951.3 3190.2 0zm-1481.2 7292l1686.3 0c638,0 1181.1,-178.5 1629.3,-535.5 448.1,-357 672.2,-892.5 672.2,-1606.5l0 -1504c0,-501.3 -83.6,-892.5 -250.7,-1173.5 -167.1,-281.1 -372.2,-497.5 -615.3,-649.4 -243.1,-151.9 -505.1,-246.9 -786.2,-284.8 -281,-38 -527.9,-57 -740.6,-57l-1595.1 0 0 5810.8z"/>
  <polygon id="6" class="fil1" points="71912.2,46604.5 78315.5,46604.5 78315.5,48176.8 73621.2,48176.8 73621.2,53737.1 77768.6,53737.1 77768.6,55218.2 73621.2,55218.2 73621.2,60983.5 78383.8,60983.5 78383.8,62555.8 71912.2,62555.8 "/>
  <polygon id="7" class="fil1" points="84829.1,46604.5 84829.1,60983.5 89865.2,60983.5 89865.2,62555.8 83120.1,62555.8 83120.1,46604.5 "/>
  <path class="fil1" d="M30965.4 70904.1l-1208.4 0 0 -1342.7 1208.4 0 0 -1678.4c0,-402.8 41,-783.3 123.1,-1141.3 82.1,-358.1 235,-663.9 458.7,-917.5 223.8,-253.6 533.4,-455 928.8,-604.2 395.4,-149.2 906.3,-223.8 1532.9,-223.8l514.7 0 0 1454.6 -470 0c-432.6,0 -779.5,119.4 -1040.6,358.1 -261.1,238.7 -391.6,626.6 -391.6,1163.7l0 1588.9 1879.8 0 0 1342.7 -1857.4 0 0 9757 -1678.4 0 0 -9757z"/>
  <path id="1" class="fil1" d="M35915.9 72515.4c0,-208.9 37.3,-488.6 111.9,-839.2 74.6,-350.6 227.5,-697.5 458.8,-1040.6 231.2,-343.2 555.7,-637.8 973.4,-884 417.8,-246.2 969.7,-369.3 1656,-369.3 686.2,0 1238.3,123.1 1656,369.3 417.8,246.2 742.2,540.8 973.5,884 231.2,343.2 384.2,690 458.7,1040.6 74.6,350.6 111.9,622.9 111.9,816.8l0 5169.4c0,223.8 -37.3,514.7 -111.9,872.8 -74.5,358 -227.5,708.6 -458.7,1051.8 -231.3,343.1 -555.7,637.7 -973.5,883.9 -417.7,246.2 -969.7,369.3 -1656,369.3 -686.3,0 -1238.3,-123 -1656,-369.3 -417.7,-246.2 -742.2,-540.8 -973.4,-883.9 -231.3,-343.2 -384.2,-693.8 -458.8,-1051.8 -74.6,-358.1 -111.9,-649 -111.9,-872.8l0 -5147.1zm4721.9 313.3c0,-626.6 -149.2,-1085.3 -447.6,-1376.3 -298.4,-290.9 -656.4,-436.4 -1074.1,-436.4 -417.8,0 -775.8,145.5 -1074.2,436.4 -298.4,290.9 -447.6,749.7 -447.6,1376.3l0 4565.2c0,581.8 130.6,1029.4 391.7,1342.7 261.1,313.3 637.7,469.9 1130.1,469.9 477.4,0 850.4,-149.2 1118.9,-447.6 268.5,-298.4 402.8,-753.4 402.8,-1365.1l0 -4565.2z"/>
  <path id="2" class="fil1" d="M44670.7 72515.4c0,-208.9 37.3,-488.6 111.9,-839.2 74.6,-350.6 227.5,-697.5 458.8,-1040.6 231.2,-343.2 555.7,-637.8 973.4,-884 417.8,-246.2 969.7,-369.3 1656,-369.3 686.2,0 1238.3,123.1 1656,369.3 417.8,246.2 742.2,540.8 973.5,884 231.2,343.2 384.2,690 458.7,1040.6 74.6,350.6 111.9,622.9 111.9,816.8l0 5169.4c0,223.8 -37.3,514.7 -111.9,872.8 -74.5,358 -227.5,708.6 -458.7,1051.8 -231.3,343.1 -555.7,637.7 -973.5,883.9 -417.7,246.2 -969.7,369.3 -1656,369.3 -686.3,0 -1238.3,-123 -1656,-369.3 -417.7,-246.2 -742.2,-540.8 -973.4,-883.9 -231.3,-343.2 -384.2,-693.8 -458.8,-1051.8 -74.6,-358.1 -111.9,-649 -111.9,-872.8l0 -5147.1zm4721.9 313.3c0,-626.6 -149.2,-1085.3 -447.6,-1376.3 -298.4,-290.9 -656.4,-436.4 -1074.1,-436.4 -417.8,0 -775.8,145.5 -1074.2,436.4 -298.4,290.9 -447.6,749.7 -447.6,1376.3l0 4565.2c0,581.8 130.6,1029.4 391.7,1342.7 261.1,313.3 637.7,469.9 1130.1,469.9 477.4,0 850.4,-149.2 1118.9,-447.6 268.5,-298.4 402.8,-753.4 402.8,-1365.1l0 -4565.2z"/>
  <path id="3" class="fil1" d="M59915.3 80661.2l-1678.4 0 0 -1096.5c-358,477.4 -749.7,809.4 -1174.8,995.8 -425.2,186.5 -831.8,279.7 -1219.6,279.7 -492.4,0 -891.4,-82 -1197.2,-246.2 -305.8,-164.1 -540.8,-376.7 -704.9,-637.8 -164.1,-261.1 -276,-540.8 -335.7,-839.2 -59.7,-298.4 -89.5,-581.8 -89.5,-850.4l0 -6310.8c0,-268.5 29.8,-552 89.5,-850.4 59.7,-298.4 171.6,-578.1 335.7,-839.2 164.1,-261.1 399.1,-473.7 704.9,-637.7 305.8,-164.1 704.9,-246.2 1197.2,-246.2 387.9,0 794.4,93.2 1219.6,279.8 425.2,186.5 816.8,518.4 1174.8,995.8l0 -5661.8 1678.4 0 0 15665zm-3312 -1454.6c343.2,0 619.2,-74.5 828,-223.8 208.9,-149.2 373,-328.2 492.4,-537.1 119.3,-208.9 201.4,-428.9 246.2,-660.1 44.7,-231.3 67.1,-436.4 67.1,-615.4l0 -4117.7c0,-179 -22.4,-384.2 -67.1,-615.4 -44.7,-231.3 -126.8,-451.3 -246.2,-660.1 -119.3,-208.9 -283.5,-387.9 -492.4,-537.1 -208.8,-149.2 -484.8,-223.8 -828,-223.8 -268.5,0 -492.3,48.5 -671.3,145.5 -179.1,96.9 -324.5,227.5 -436.4,391.6 -111.9,164.1 -190.2,350.6 -235,559.4 -44.7,208.9 -67.1,417.8 -67.1,626.6l0 4744.2c0,208.9 22.4,417.7 67.1,626.6 44.7,208.9 123,395.4 235,559.5 111.9,164.1 257.3,294.7 436.4,391.6 179,97 402.8,145.4 671.3,145.4z"/>
  <rect class="fil2" y="73780.9" width="25534.4" height="1482.5" rx="30299.3" ry="12766.4"/>
  <rect class="fil2" x="64752.4" y="73780.9" width="25534.4" height="1482.5" rx="30299.3" ry="12766.4"/>
 </g>
</svg>
