<?xml version="1.0" encoding="UTF-8"?>
<!DOCTYPE svg PUBLIC "-//W3C//DTD SVG 1.1//EN" "http://www.w3.org/Graphics/SVG/1.1/DTD/svg11.dtd">
<!-- Creator: CorelDRAW 2018 (64-Bit) -->
<svg xmlns="http://www.w3.org/2000/svg" xml:space="preserve" width="9.5735mm" height="5.4316mm" version="1.1" style="shape-rendering:geometricPrecision; text-rendering:geometricPrecision; image-rendering:optimizeQuality; fill-rule:evenodd; clip-rule:evenodd"
viewBox="0 0 1517.5 861"
 xmlns:xlink="http://www.w3.org/1999/xlink">
 <defs>
  <style type="text/css">
   <![CDATA[
    .fil0 {fill:#FEFEFE}
   ]]>
  </style>
 </defs>
 <g id="Слой_x0020_1">
  <metadata id="CorelCorpID_0Corel-Layer"/>
  <path class="fil0" d="M494.3 61.2c20.1,0 36.2,1.6 52.5,11.8 13.3,8.3 22.6,19.9 29.5,34.8 5.5,11.8 11.6,35.9 11.5,52.9 -0.1,21.9 0.7,42 0.7,64.4l1.3 63.1c1.1,7.9 0.3,23.3 0.2,32 -0,6.2 0.8,9.4 0.8,15.7 -0.1,13.5 1.6,35.5 -0.7,46.5 -8,39.2 -51.4,55.8 -84.3,34 -10.8,-7.1 -27.5,-33.8 -35.9,-46.4l-16.5 -24.7c-2.9,-4.3 -5.1,-8 -7.9,-12.3l-15.8 -25.4c-12.9,-21.7 -26.8,-43.2 -38.2,-65.8l-45.1 -88.8c-11.5,-23 -25.1,-55.6 -34.6,-79.2 -4.4,-11 -8.4,-17.2 -16.8,-24.4 -6.6,-5.6 -18.5,-11.4 -30.5,-11.4l-229.7 0c-13.6,0 -27,10.7 -31.9,22.7 -5,12.5 -3.1,21.7 1.1,33.5 2.1,5.7 4.1,11 6.4,16.8 8.7,21.7 17,43.7 27.4,64.6 7.6,15.4 14.1,31.7 21.7,47.2l15.2 31.2c1.4,2.8 2.4,4.7 3.7,7.5l19.7 37.9c8.7,17.5 18.8,34.7 28.2,51.9 1.5,2.7 2.8,5.2 4.3,7.7 13.9,24.2 27.6,48.9 42.9,72.3l22 34.9c1.7,2.6 3.1,4.6 4.8,7.2l37.3 54.8c14.1,20 28.4,40.3 44,59.3l15.6 19.5c7,8.3 13.3,17.1 20.6,25l66.6 71.8 23.6 22.1c2.3,2.3 3.8,3 6,5.2 1.2,1.2 1.8,1.9 3.1,2.9l9.3 7.9c20.2,19.2 62.3,48.6 86.6,63.1 9.8,5.9 19.4,11.2 30,16.4 15.6,7.8 31.6,14.7 48,20.8 28.8,10.8 65.5,18.8 97.2,18.8l153.4 0c9.9,0 21.1,-5.2 27.4,-9.3 7.2,-4.8 13.5,-12 17.8,-19.6 5,-9 6.5,-16.5 6.5,-30.2l0 -74.1c-0,-22.5 5.8,-39.3 23.2,-51.6 15.4,-10.9 39.7,-13.5 56.8,-3.7 7.8,4.5 12.3,9.9 18.9,15.5l54.6 50.9c9.4,9.5 19.4,17.8 28.8,27.3 1.2,1.2 2.1,2.2 3.4,3.3l68.4 64c15,15.1 34.3,27.5 57,27.5l233.4 0c20.3,0 37.3,-3.6 53.4,-12.5 11.9,-6.6 21.3,-17.2 24.8,-30.6 5.3,-21 -3.4,-42.3 -14.1,-59.9 -4.3,-7 -8.7,-13 -14.1,-18.8 -3,-3.2 -7.9,-9 -11,-11.4 -4.2,-3.2 -6.9,-7.3 -10.7,-11l-147.3 -152.7c-3.4,-4.3 -6.7,-7.3 -10.6,-11.1 -9.1,-9.1 -24.7,-24.9 -30.5,-36.1 -12.1,-23.3 -11.2,-49 0.5,-72.1 2.6,-5 6.1,-9.5 9.4,-13.9 49.4,-66 100,-131 149.4,-197l24.2 -33.4c1.7,-2.6 3.2,-4.3 4.9,-7 1.6,-2.5 2.8,-4.2 4.4,-6.8 4.5,-7.6 9.2,-13.9 13.5,-21.7 13.7,-25.2 35.9,-64.4 29.8,-94.3 -1.8,-9.1 -6.3,-16.2 -13.3,-21.9 -7.4,-6 -22.5,-10.7 -35.7,-10.7l-255.9 0c-13.8,0 -27.1,7.4 -34.6,14 -9.9,8.8 -25,38.5 -32.2,53.1l-56.1 104c-1.5,3 -2.8,4.8 -4.2,7.7l-30.2 56.6c-13.6,27.2 -37.1,70.4 -53.6,93.8 -13.2,18.6 -29.6,37.7 -50.9,47.1 -6,2.7 -13,3.5 -20.5,1.8 -6.8,-1.5 -11.1,-5.4 -15.2,-9.5 -8.6,-8.7 -13,-21.9 -15.3,-34 -2.8,-14.4 -2.8,-29 -2.8,-46.6l0 -244.7c0,-16.5 -4.9,-28.1 -10.5,-38.9 -10.9,-21 -34,-37 -57.8,-40.9 -13.7,-2.3 -78.1,-1 -97.1,-1 -32.9,0 -65.9,-0.1 -98.8,0 -12.8,0 -18.4,-1.7 -33.8,0.6 -16.6,2.4 -33.2,7.5 -47.5,14.6 -12,6 -22.8,13.9 -32.9,22.4l-20.4 23z"/>
 </g>
</svg>
